<?xml version="1.0" encoding="UTF-8" standalone="no"?>
<svg
   xmlns:dc="http://purl.org/dc/elements/1.1/"
   xmlns:cc="http://creativecommons.org/ns#"
   xmlns:rdf="http://www.w3.org/1999/02/22-rdf-syntax-ns#"
   xmlns:svg="http://www.w3.org/2000/svg"
   xmlns="http://www.w3.org/2000/svg"
   id="svg8"
   version="1.1"
   viewBox="0 0 261.9375 95.779167"
   height="69px"
   width="188px">
  <defs
     id="defs2" />
  <metadata
     id="metadata5">
    <rdf:RDF>
      <cc:Work
         rdf:about="">
        <dc:format>image/svg+xml</dc:format>
        <dc:type
           rdf:resource="http://purl.org/dc/dcmitype/StillImage" />
        <dc:title></dc:title>
      </cc:Work>
    </rdf:RDF>
  </metadata>
  <g
     style="display:inline"
     transform="translate(124.16518,-25.348511)"
     id="layer1">
    <path
       id="path4496"
       d="m -74.823074,116.98283 c -9.369769,-1.41293 -17.221573,-5.46905 -23.163643,-11.96597 -1.08448,-1.18575 -2.045323,-2.15596 -2.135213,-2.15604 -0.0899,-8e-5 -1.20919,1.75603 -2.48734,3.90247 -1.27815,2.14643 -2.35839,3.94514 -2.40055,3.99715 -0.10412,0.12843 -2.9706,-1.52285 -3.15143,-1.81543 -0.0793,-0.12828 1.15741,-2.3674 2.7482,-4.97582 l 2.89234,-4.742579 -1.43081,-2.78914 c -1.55733,-3.03576 -2.68291,-6.20677 -3.44892,-9.71637 -0.70015,-3.20784 -0.70015,-11.60883 0,-14.81667 2.267,-10.38664 8.240663,-19.05558 16.992923,-24.66001 3.376436,-2.16207 8.411914,-4.18325 12.806318,-5.14029 3.209589,-0.69901 11.611933,-0.69841 14.816667,10e-4 9.057748,1.97695 16.65724,6.6517 22.315701,13.72726 3.572521,4.46722 6.166673,10.03853 7.483539,16.07198 0.384421,1.76129 0.49086,3.36771 0.49086,7.40833 0,5.74322 -0.282215,7.60172 -1.86822,12.30312 l -0.892564,2.64584 4.360315,7.233509 c 2.398175,3.97844 4.297812,7.33465 4.221419,7.45826 -0.17504,0.28322 -3.044801,1.93477 -3.139768,1.80694 -0.03863,-0.052 -1.150006,-1.88048 -2.469721,-4.06329 -4.179819,-6.913439 -4.913596,-8.069789 -5.120775,-8.069789 -0.111215,0 -0.472501,0.44648 -0.802857,0.99219 -2.506771,4.140839 -7.211465,8.841519 -11.771609,11.761569 -1.867832,1.19605 -5.832766,3.09329 -7.949332,3.8038 -4.108506,1.37918 -6.281198,1.72909 -11.33928,1.82619 -2.619375,0.0503 -5.119688,0.0376 -5.55625,-0.0283 z m 11.377083,-5.41778 c 9.390827,-1.91258 17.406567,-7.89206 22.309109,-16.641869 l 0.815358,-1.45521 -8.543917,-14.11433 c -4.699153,-7.76289 -8.631761,-14.13273 -8.739129,-14.15521 -0.203938,-0.0427 -1.101289,1.38934 -8.460648,13.50197 -2.45922,4.04758 -5.007427,8.23176 -5.662683,9.29817 l -1.191374,1.93893 -0.795126,-1.27747 c -0.437319,-0.70261 -1.026036,-1.69419 -1.308256,-2.20351 -1.267002,-2.28655 -7.488851,-12.43308 -7.624638,-12.43419 -0.08322,-7.9e-4 -3.400989,5.36827 -7.372821,11.931 -6.221571,10.27999 -7.184811,12.01105 -6.956421,12.50156 0.54288,1.16595 3.78625,4.650279 5.92229,6.362299 7.985677,6.40044 17.680045,8.76988 27.608256,6.74786 z M -95.800417,88.110161 c 11.020485,-18.28869 12.914251,-21.3651 13.15182,-21.3651 0.14337,0 2.301203,3.39328 4.795184,7.54062 2.493981,4.14735 4.663379,7.69698 4.820886,7.88807 0.231312,0.28065 0.336938,0.25521 0.549378,-0.13229 0.144653,-0.26386 2.960759,-4.94458 6.258012,-10.40161 3.297251,-5.45703 6.493632,-10.77917 7.103065,-11.82697 0.609436,-1.0478 1.219433,-1.97392 1.35555,-2.05805 0.136118,-0.0841 0.932437,1.01129 1.7696,2.43426 0.837163,1.42297 3.420049,5.68284 5.739749,9.46638 2.319697,3.78355 5.897118,9.6517 7.949824,13.04035 l 3.732192,6.16118 0.455914,-1.92785 c 1.54214,-6.52099 1.05057,-13.4205 -1.400347,-19.65493 -4.088191,-10.39916 -13.03586,-17.93059 -24.076255,-20.26545 -3.86161,-0.81666 -9.332431,-0.81666 -13.194041,0 -13.014809,2.75241 -22.955511,12.68763 -25.703594,25.68941 -0.8217,3.88765 -0.8217,9.34152 0,13.22917 0.56249,2.66124 2.512553,8.20208 2.886673,8.20208 0.0986,0 1.81147,-2.70867 3.80639,-6.01927 z m -26.250783,-8.92969 v -2.51354 h 4.63021 4.63021 v 2.51354 2.51355 h -4.63021 -4.63021 z m 94.456251,0 v -2.51354 h 4.630208 4.630209 v 2.51354 2.51355 h -4.630209 -4.630208 z M 81.284326,68.302361 c -2.67348,-0.6463 -5.368417,-2.15064 -7.284281,-4.06615 -3.723262,-3.72259 -5.286661,-8.23319 -5.286661,-15.25267 0,-5.52837 0.963536,-9.21909 3.35551,-12.85291 1.915668,-2.91023 4.245845,-4.6795 7.841877,-5.95421 2.553927,-0.90532 7.646527,-1.14547 10.557409,-0.49786 5.801765,1.29077 9.8878,5.03857 11.80313,10.82607 1.06219,3.20962 1.47631,6.47788 1.27986,10.10084 -0.50651,9.34113 -5.156719,15.85691 -12.62969,17.69646 -2.182717,0.53729 -7.415376,0.53753 -9.637154,5.3e-4 z m 10.064954,-5.24262 c 3.202492,-1.58275 5.179673,-4.21708 6.221002,-8.28863 0.639495,-2.5004 0.698831,-8.25839 0.113813,-11.0448 -1.214056,-5.78253 -5.208852,-9.52141 -10.526726,-9.85237 -8.675925,-0.53994 -13.593497,5.66162 -13.057587,16.46695 0.245068,4.94116 1.377114,8.1362 3.746585,10.5742 2.379163,2.44798 4.968997,3.37519 8.959591,3.20769 2.352315,-0.0987 2.807843,-0.20531 4.543322,-1.06304 z M -7.7511995,49.010291 v -18.92538 l 3.482258,0.0738 3.48226102,0.0738 4.84298058,10.15527 c 2.6636398,5.5854 4.8879918,10.20029 4.9430067,10.2553 0.055012,0.055 2.2320152,-4.541 4.8377802,-10.21337 l 4.737756,-10.31339 3.63802,-0.008 3.638021,-0.008 v 18.91771 18.91771 h -2.643767 -2.643769 l -0.06821,-15.88545 -0.06821,-15.88545 -5.034018,10.65993 -5.034019,10.65993 -1.5878991,0.0772 -1.5878996,0.0772 -5.0197491,-10.75018 -5.0197487,-10.75017 -0.06821,15.89845 -0.06821,15.89845 h -2.379188 -2.379184 z m 39.8910475,16.20408 c 0.542893,-1.50684 3.606453,-10.02261 6.807911,-18.92394 l 5.820834,-16.18422 3.459342,-0.003 3.459343,-0.003 3.741581,10.3849 c 2.057871,5.71169 5.11484,14.18851 6.793262,18.83738 1.678424,4.64886 3.05168,8.48863 3.05168,8.53281 0,0.0442 -1.226637,0.0803 -2.725859,0.0803 h -2.725857 l -0.442343,-1.25672 c -0.243287,-0.69122 -1.053709,-3.01294 -1.800935,-5.15937 l -1.358593,-3.90261 -8.10706,0.002 -8.107061,0.002 -1.745904,5.09089 -1.745906,5.09088 -2.680755,0.0753 -2.680759,0.0753 0.987079,-2.73971 z m 22.286036,-12.52033 c 0,-0.0882 -1.369218,-4.0174 -3.042708,-8.73152 -1.67349,-4.71412 -3.046328,-8.71983 -3.050754,-8.90158 -0.0048,-0.19906 -0.107805,-0.15971 -0.258929,0.099 -0.209849,0.35919 -3.384979,9.22387 -5.698096,15.90859 l -0.617988,1.78594 h 6.334237 c 3.483832,0 6.334238,-0.0722 6.334238,-0.16039 z m 65.087496,-1.42711 v -16.66875 h -5.02708 -5.02708 v -2.24896 -2.24896 h 12.83229 12.83229 v 2.24896 2.24896 h -5.15938 -5.15937 v 16.66875 16.66875 h -2.64583 -2.64584 z m -232.04733,6.34517 c -2.10579,-1.31235 -3.81937,-2.493095 -3.82871,-2.62315 -0.009,-0.13038 0.71585,-1.170869 1.4412,-2.271349 0.88392,-1.323067 1.30913,-1.928767 1.30913,-1.928767 0.431,0.276825 7.12709,4.378696 7.52916,4.728126 l -2.48203,4.47184 c -0.077,0.005 -1.86297,-1.06436 -3.96875,-2.3767 z m 79.289724,0.23518 c -0.706009,-1.17398 -1.182259,-2.22262 -1.058334,-2.33032 0.406805,-0.35355 7.117432,-4.48569 7.512458,-4.62588 0.456308,-0.16194 3.088526,4.01438 2.727764,4.32791 -0.406805,0.35355 -7.117432,4.48568 -7.512458,4.62587 -0.264639,0.0939 -0.788863,-0.53335 -1.66943,-1.99758 z m -62.988661,-18.47944 c -1.24872,-2.17888 -2.2704,-4.01393 -2.2704,-4.07789 0,-0.12326 4.12197,-2.54385 4.33186,-2.54385 0.12464,0 4.663978,7.82463 4.663978,8.03948 0,0.12326 -4.121958,2.54385 -4.331858,2.54385 -0.0678,0 -1.14485,-1.78272 -2.39358,-3.96159 z m 47.548583,2.743469 c -1.048888,-0.61791 -1.980023,-1.125559 -2.069193,-1.214729 -0.157755,-0.15776 4.293582,-8.15048 4.539194,-8.15048 0.209892,0 4.331854,2.42059 4.331854,2.54385 0,0.28103 -4.558911,8.03827 -4.717796,8.02759 -0.09735,-0.006 -1.035174,-0.588321 -2.084059,-1.206231 z M -72.838699,31.820061 v -4.63021 h 2.513542 2.513541 v 4.63021 4.6302 h -2.513541 -2.513542 z"
       style="fill:#4d4d4d;stroke-width:0.26458332" />
    <g
       id="flowRoot4498"
       style="font-style:normal;font-variant:normal;font-weight:normal;font-stretch:normal;font-size:32px;line-height:1.25;font-family:'MS Reference Sans Serif';-inkscape-font-specification:'MS Reference Sans Serif';letter-spacing:0px;word-spacing:0px;fill:#666666;fill-opacity:1;stroke:none"
       transform="matrix(0.31385194,0,0,0.39767354,-145.79708,-81.303051)"
       aria-label="ТУРИСТИЧЕСКИЙ ХОЛДИНГ">
      <path
         id="path4538"
         d="m 456.86133,402.10668 h -8.3125 v 20.51562 h -3.09375 v -20.51562 h -8.3125 v -2.75 h 19.71875 z" />
      <path
         id="path4540"
         d="m 476.48633,399.35668 -8.84375,19.57812 q -0.53125,1.1875 -1.26563,1.95313 -0.71875,0.76562 -1.5625,1.1875 -0.8125,0.39062 -1.57812,0.53125 -0.75,0.125 -1.45313,0.125 -0.625,0 -1.51562,-0.0625 -0.89063,-0.0625 -1.14063,-0.0781 v -2.89062 h 0.21875 q 0.23438,0.0312 0.78125,0.10937 0.54688,0.0625 1.25,0.0625 0.3125,0 0.875,-0.0469 0.5625,-0.0469 1,-0.21875 0.5,-0.1875 0.98438,-0.59375 0.5,-0.40625 0.84375,-1.1875 l 0.5625,-1.23438 -8.65625,-17.23437 h 3.42187 l 6.79688,13.71875 6.09375,-13.71875 z" />
      <path
         id="path4542"
         d="m 494.92383,406.38793 q 0,1.54687 -0.54688,2.875 -0.53125,1.3125 -1.5,2.28125 -1.20312,1.20312 -2.84375,1.8125 -1.64062,0.59375 -4.14062,0.59375 h -3.09375 v 8.67187 h -3.09375 v -23.26562 h 6.3125 q 2.09375,0 3.54687,0.35937 1.45313,0.34375 2.57813,1.09375 1.32812,0.89063 2.04687,2.21875 0.73438,1.32813 0.73438,3.35938 z m -3.21875,0.0781 q 0,-1.20312 -0.42188,-2.09375 -0.42187,-0.89062 -1.28125,-1.45312 -0.75,-0.48438 -1.71875,-0.6875 -0.95312,-0.21875 -2.42187,-0.21875 h -3.0625 v 9.29687 h 2.60937 q 1.875,0 3.04688,-0.32812 1.17187,-0.34375 1.90625,-1.07813 0.73437,-0.75 1.03125,-1.57812 0.3125,-0.82813 0.3125,-1.85938 z" />
      <path
         id="path4544"
         d="m 516.7832,422.6223 h -3.07812 v -18.64062 l -11.5625,18.64062 h -3.125 v -23.26562 h 3.07812 v 18.35937 l 11.42188,-18.35937 h 3.26562 z" />
      <path
         id="path4546"
         d="m 540.98633,420.9348 q -0.85938,0.375 -1.5625,0.70313 -0.6875,0.32812 -1.8125,0.6875 -0.95313,0.29687 -2.07813,0.5 -1.10937,0.21875 -2.45312,0.21875 -2.53125,0 -4.60938,-0.70313 -2.0625,-0.71875 -3.59375,-2.23437 -1.5,-1.48438 -2.34375,-3.76563 -0.84375,-2.29687 -0.84375,-5.32812 0,-2.875 0.8125,-5.14063 0.8125,-2.26562 2.34375,-3.82812 1.48438,-1.51563 3.57813,-2.3125 2.10937,-0.79688 4.67187,-0.79688 1.875,0 3.73438,0.45313 1.875,0.45312 4.15625,1.59375 v 3.67187 h -0.23438 q -1.92187,-1.60937 -3.8125,-2.34375 -1.89062,-0.73437 -4.04687,-0.73437 -1.76563,0 -3.1875,0.57812 -1.40625,0.5625 -2.51563,1.76563 -1.07812,1.17187 -1.6875,2.96875 -0.59375,1.78125 -0.59375,4.125 0,2.45312 0.65625,4.21875 0.67188,1.76562 1.71875,2.875 1.09375,1.15625 2.54688,1.71875 1.46875,0.54687 3.09375,0.54687 2.23437,0 4.1875,-0.76562 1.95312,-0.76563 3.65625,-2.29688 h 0.21875 z" />
      <path
         id="path4548"
         d="m 561.98633,402.10668 h -8.3125 v 20.51562 h -3.09375 v -20.51562 h -8.3125 v -2.75 h 19.71875 z" />
      <path
         id="path4550"
         d="m 582.9082,422.6223 h -3.07812 v -18.64062 l -11.5625,18.64062 h -3.125 v -23.26562 h 3.07812 v 18.35937 l 11.42188,-18.35937 h 3.26562 z" />
      <path
         id="path4552"
         d="m 605.67383,422.6223 h -3.09375 v -9.84375 q -2.01563,0.625 -3.75,0.95313 -1.71875,0.32812 -3.28125,0.32812 -1.54688,0 -2.89063,-0.375 -1.34375,-0.39062 -2.32812,-1.21875 -0.98438,-0.82812 -1.54688,-2.10937 -0.54687,-1.28125 -0.54687,-3.0625 v -7.9375 h 3.09375 v 6.39062 q 0,1.35938 0.15625,2.3125 0.15625,0.9375 0.70312,1.6875 0.54688,0.73438 1.4375,1.10938 0.89063,0.35937 2.5625,0.35937 1.76563,0 3.4375,-0.3125 1.67188,-0.3125 2.95313,-0.78125 v -10.76562 h 3.09375 z" />
      <path
         id="path4554"
         d="m 627.2832,422.6223 h -15.32812 v -23.26562 h 15.32812 v 2.75 h -12.23437 v 6.375 h 12.23437 v 2.75 h -12.23437 v 8.64062 h 12.23437 z" />
      <path
         id="path4556"
         d="m 650.17383,420.9348 q -0.85938,0.375 -1.5625,0.70313 -0.6875,0.32812 -1.8125,0.6875 -0.95313,0.29687 -2.07813,0.5 -1.10937,0.21875 -2.45312,0.21875 -2.53125,0 -4.60938,-0.70313 -2.0625,-0.71875 -3.59375,-2.23437 -1.5,-1.48438 -2.34375,-3.76563 -0.84375,-2.29687 -0.84375,-5.32812 0,-2.875 0.8125,-5.14063 0.8125,-2.26562 2.34375,-3.82812 1.48438,-1.51563 3.57813,-2.3125 2.10937,-0.79688 4.67187,-0.79688 1.875,0 3.73438,0.45313 1.875,0.45312 4.15625,1.59375 v 3.67187 h -0.23438 q -1.92187,-1.60937 -3.8125,-2.34375 -1.89062,-0.73437 -4.04687,-0.73437 -1.76563,0 -3.1875,0.57812 -1.40625,0.5625 -2.51563,1.76563 -1.07812,1.17187 -1.6875,2.96875 -0.59375,1.78125 -0.59375,4.125 0,2.45312 0.65625,4.21875 0.67188,1.76562 1.71875,2.875 1.09375,1.15625 2.54688,1.71875 1.46875,0.54687 3.09375,0.54687 2.23437,0 4.1875,-0.76562 1.95312,-0.76563 3.65625,-2.29688 h 0.21875 z" />
      <path
         id="path4558"
         d="m 673.2832,422.6223 h -3.96875 l -9.45312,-10.60937 h -2.10938 v 10.60937 h -3.09375 v -23.26562 h 3.09375 v 10.4375 q 0.79688,-0.0156 1.5,-0.15625 0.70313,-0.14063 1.32813,-0.53125 0.625,-0.35938 1.23437,-1.01563 0.60938,-0.67187 1.07813,-1.64062 0.20312,-0.42188 0.46875,-1.0625 0.28125,-0.64063 0.5625,-1.34375 1.07812,-2.59375 2.51562,-3.64063 1.45313,-1.04687 4.26563,-1.04687 h 1.23437 v 2.76562 h -1.29687 q -1.07813,0 -1.6875,0.20313 -0.60938,0.1875 -1.09375,0.64062 -0.45313,0.40625 -0.79688,1.09375 -0.32812,0.6875 -0.6875,1.60938 -0.8125,2.0625 -1.65625,3.03125 -0.82812,0.96875 -2.23437,1.6875 z" />
      <path
         id="path4560"
         d="m 694.5332,422.6223 h -3.07812 v -18.64062 l -11.5625,18.64062 h -3.125 v -23.26562 h 3.07812 v 18.35937 l 11.42188,-18.35937 h 3.26562 z" />
      <path
         id="path4562"
         d="m 718.5332,422.6223 h -3.07812 v -18.64062 l -11.5625,18.64062 h -3.125 v -23.26562 h 3.07812 v 18.35937 l 11.42188,-18.35937 h 3.26562 z m -2.82812,-30.23437 q -0.0781,2.59375 -1.65625,3.90625 -1.5625,1.3125 -4.1875,1.3125 -2.625,0 -4.20313,-1.3125 -1.5625,-1.3125 -1.64062,-3.90625 h 2.84375 q 0.0312,1.75 0.78125,2.53125 0.75,0.76562 2.21875,0.76562 1.48437,0 2.21875,-0.76562 0.75,-0.76563 0.78125,-2.53125 z" />
      <path
         id="path4564"
         d="m 753.76758,399.35668 -8.03125,11.5 8.01562,11.76562 h -3.57812 l -6.34375,-9.57812 -6.5,9.57812 h -3.375 l 8.10937,-11.625 -7.92187,-11.64062 h 3.5625 l 6.26562,9.45312 6.40625,-9.45312 z" />
      <path
         id="path4566"
         d="m 775.29883,402.02855 q 1.42187,1.5625 2.17187,3.82813 0.76563,2.26562 0.76563,5.14062 0,2.875 -0.78125,5.15625 -0.76563,2.26563 -2.15625,3.78125 -1.4375,1.57813 -3.40625,2.375 -1.95313,0.79688 -4.46875,0.79688 -2.45313,0 -4.46875,-0.8125 -2,-0.8125 -3.40625,-2.35938 -1.40625,-1.54687 -2.17188,-3.79687 -0.75,-2.25 -0.75,-5.14063 0,-2.84375 0.75,-5.09375 0.75,-2.26562 2.1875,-3.875 1.375,-1.53125 3.40625,-2.34375 2.04688,-0.8125 4.45313,-0.8125 2.5,0 4.48437,0.82813 2,0.8125 3.39063,2.32812 z m -0.28125,8.96875 q 0,-4.53125 -2.03125,-6.98437 -2.03125,-2.46875 -5.54688,-2.46875 -3.54687,0 -5.57812,2.46875 -2.01563,2.45312 -2.01563,6.98437 0,4.57813 2.0625,7.01563 2.0625,2.42187 5.53125,2.42187 3.46875,0 5.51563,-2.42187 2.0625,-2.4375 2.0625,-7.01563 z" />
      <path
         id="path4568"
         d="m 800.39258,422.6223 h -3.09375 v -20.51562 h -8.40625 q -0.0469,1.76562 -0.14063,3.46875 -0.0781,1.6875 -0.125,3.01562 -0.125,3.34375 -0.42187,5.5 -0.28125,2.15625 -0.73438,3.54688 -0.45312,1.40625 -1.03125,2.25 -0.5625,0.82812 -1.29687,1.5 -0.75,0.6875 -1.54688,0.98437 -0.78125,0.29688 -1.84375,0.29688 -0.32812,0 -0.79687,-0.0312 -0.46875,-0.0156 -0.65625,-0.0156 v -3 h 0.21875 q 0.15625,0.0156 0.39062,0.0312 0.23438,0.0156 0.46875,0.0156 0.5625,0 1.0625,-0.17188 0.5,-0.17187 0.84375,-0.53125 1.10938,-1.10937 1.625,-3.65625 0.53125,-2.54687 0.75,-7.25 0.0781,-1.53125 0.15625,-4.0625 0.0937,-2.53125 0.15625,-4.64062 h 14.42188 z" />
      <path
         id="path4570"
         d="m 825.98633,427.88793 h -2.9375 v -5.32813 h -16.4375 v 5.32813 h -2.9375 v -8.01563 h 1.875 q 2.03125,-3.34375 3.23437,-8.71875 1.21875,-5.39062 1.21875,-11.79687 h 13.78125 v 20.51562 h 2.20313 z m -5.29688,-8.01563 v -17.82812 h -7.78125 q -0.21875,5.57812 -1.375,10.21875 -1.15625,4.625 -3,7.60937 z" />
      <path
         id="path4572"
         d="m 848.2832,422.6223 h -3.07812 v -18.64062 l -11.5625,18.64062 h -3.125 v -23.26562 h 3.07812 v 18.35937 l 11.42188,-18.35937 h 3.26562 z" />
      <path
         id="path4574"
         d="m 872.31445,422.6223 h -3.09375 v -11.39062 h -11.60937 v 11.39062 h -3.09375 v -23.26562 h 3.09375 v 9.125 h 11.60937 v -9.125 h 3.09375 z" />
      <path
         id="path4576"
         d="m 893.61133,402.10668 h -11.9375 v 20.51562 h -3.09375 v -23.26562 h 15.03125 z" />
    </g>
    <g
       id="flowRoot4498-6"
       style="font-style:normal;font-variant:normal;font-weight:normal;font-stretch:normal;font-size:32px;line-height:1.25;font-family:'MS Reference Sans Serif';-inkscape-font-specification:'MS Reference Sans Serif';letter-spacing:0px;word-spacing:0px;display:inline;fill:#666666;fill-opacity:1;stroke:none"
       transform="matrix(0.46231961,0,0,0.47510784,-210.83043,-91.343632)"
       aria-label="МАГАЗИН ОТДЫХА

">
      <path
         id="path4579"
         style="fill:#1a1a1a"
         d="m 460.98633,422.6223 h -3.09375 v -20.04687 l -6.46875,13.64062 h -1.84375 l -6.42188,-13.64062 v 20.04687 h -2.89062 v -23.26562 h 4.21875 l 6.20312,12.95312 6,-12.95312 h 4.29688 z" />
      <path
         id="path4581"
         style="fill:#1a1a1a"
         d="m 485.61133,422.6223 h -3.29688 l -2.28125,-6.48437 h -10.0625 l -2.28125,6.48437 h -3.14062 l 8.46875,-23.26562 h 4.125 z m -6.53125,-9.14062 -4.07813,-11.42188 -4.09375,11.42188 z" />
      <path
         id="path4583"
         d="m 504.17383,402.10668 h -11.9375 v 20.51562 h -3.09375 v -23.26562 h 15.03125 z" />
      <path
         id="path4585"
         d="m 525.61133,422.6223 h -3.29688 l -2.28125,-6.48437 h -10.0625 l -2.28125,6.48437 h -3.14062 l 8.46875,-23.26562 h 4.125 z m -6.53125,-9.14062 -4.07813,-11.42188 -4.09375,11.42188 z" />
      <path
         id="path4587"
         d="m 542.36133,411.41918 q 0.75,0.65625 1.23437,1.67187 0.5,1 0.5,2.59375 0,1.64063 -0.71875,2.96875 -0.70312,1.32813 -1.79687,2.26563 -1.25,1.0625 -3.04688,1.59375 -1.79687,0.53125 -3.875,0.53125 -2.29687,0 -4.26562,-0.42188 -1.95313,-0.4375 -3.10938,-0.90625 v -3.46875 h 0.23438 q 1.54687,0.92188 3.48437,1.51563 1.95313,0.57812 3.71875,0.57812 1.125,0 2.4375,-0.32812 1.3125,-0.32813 2.125,-0.96875 0.84375,-0.70313 1.21875,-1.5625 0.39063,-0.875 0.39063,-1.95313 0,-1.23437 -0.46875,-2.01562 -0.46875,-0.79688 -1.26563,-1.28125 -0.79687,-0.46875 -1.9375,-0.67188 -1.125,-0.21875 -2.51562,-0.21875 h -3.14063 v -2.64062 h 2.79688 q 2.70312,0 4.34375,-0.98438 1.64062,-1 1.64062,-2.875 0,-0.84375 -0.42187,-1.48437 -0.40625,-0.64063 -1.125,-1.01563 -0.70313,-0.375 -1.57813,-0.53125 -0.85937,-0.17187 -2.04687,-0.17187 -1.21875,0 -2.25,0.23437 -1.03125,0.23438 -1.95313,0.54688 -0.75,0.26562 -1.53125,0.67187 -0.78125,0.40625 -1.14062,0.60938 h -0.20313 v -3.42188 q 1.17188,-0.5 3.10938,-0.92187 1.9375,-0.42188 3.90625,-0.42188 1.92187,0 3.29687,0.3125 1.39063,0.29688 2.5625,0.98438 1.21875,0.75 1.85938,1.8125 0.64062,1.0625 0.64062,2.46875 0,1.98437 -1.28125,3.35937 -1.26562,1.375 -3.21875,1.79688 v 0.23437 q 0.8125,0.14063 1.73438,0.51563 0.92187,0.35937 1.65625,1 z" />
      <path
         id="path4589"
         d="m 566.5957,422.6223 h -3.07812 v -18.64062 l -11.5625,18.64062 h -3.125 v -23.26562 h 3.07812 v 18.35937 l 11.42188,-18.35937 h 3.26562 z" />
      <path
         id="path4591"
         d="m 590.62695,422.6223 h -3.09375 v -11.39062 h -11.60937 v 11.39062 h -3.09375 v -23.26562 h 3.09375 v 9.125 h 11.60937 v -9.125 h 3.09375 z" />
      <path
         id="path4593"
         style="fill:#1a1a1a"
         d="m 625.48633,402.02855 q 1.42187,1.5625 2.17187,3.82813 0.76563,2.26562 0.76563,5.14062 0,2.875 -0.78125,5.15625 -0.76563,2.26563 -2.15625,3.78125 -1.4375,1.57813 -3.40625,2.375 -1.95313,0.79688 -4.46875,0.79688 -2.45313,0 -4.46875,-0.8125 -2,-0.8125 -3.40625,-2.35938 -1.40625,-1.54687 -2.17188,-3.79687 -0.75,-2.25 -0.75,-5.14063 0,-2.84375 0.75,-5.09375 0.75,-2.26562 2.1875,-3.875 1.375,-1.53125 3.40625,-2.34375 2.04688,-0.8125 4.45313,-0.8125 2.5,0 4.48437,0.82813 2,0.8125 3.39063,2.32812 z m -0.28125,8.96875 q 0,-4.53125 -2.03125,-6.98437 -2.03125,-2.46875 -5.54688,-2.46875 -3.54687,0 -5.57812,2.46875 -2.01563,2.45312 -2.01563,6.98437 0,4.57813 2.0625,7.01563 2.0625,2.42187 5.53125,2.42187 3.46875,0 5.51563,-2.42187 2.0625,-2.4375 2.0625,-7.01563 z" />
      <path
         id="path4595"
         style="fill:#1a1a1a"
         d="m 649.92383,402.10668 h -8.3125 v 20.51562 h -3.09375 v -20.51562 h -8.3125 v -2.75 h 19.71875 z" />
      <path
         id="path4597"
         d="m 672.42383,427.88793 h -2.9375 v -5.32813 h -16.4375 v 5.32813 h -2.9375 v -8.01563 h 1.875 q 2.03125,-3.34375 3.23437,-8.71875 1.21875,-5.39062 1.21875,-11.79687 h 13.78125 v 20.51562 h 2.20313 z m -5.29688,-8.01563 v -17.82812 h -7.78125 q -0.21875,5.57812 -1.375,10.21875 -1.15625,4.625 -3,7.60937 z" />
      <path
         id="path4599"
         d="m 691.12695,415.48168 q 0,-1.17188 -0.39062,-2.0625 -0.39063,-0.89063 -1.21875,-1.4375 -0.85938,-0.57813 -1.98438,-0.70313 -1.125,-0.125 -3.17187,-0.125 h -4.3125 v 8.82813 h 4.23437 q 2.07813,0 3.1875,-0.20313 1.125,-0.20312 1.96875,-0.78125 0.875,-0.60937 1.28125,-1.42187 0.40625,-0.82813 0.40625,-2.09375 z m 3.23438,-0.0625 q 0,1.6875 -0.67188,3.0625 -0.65625,1.375 -1.76562,2.23437 -1.3125,1.03125 -2.8125,1.46875 -1.5,0.4375 -3.875,0.4375 h -8.28125 v -23.26562 h 3.09375 v 9.125 h 5.28125 q 2.375,0 3.875,0.28125 1.5,0.26562 2.82812,1.29687 1.1875,0.92188 1.75,2.28125 0.57813,1.35938 0.57813,3.07813 z m 5.79687,7.20312 h -3.09375 v -23.26562 h 3.09375 z" />
      <path
         id="path4601"
         d="m 724.14258,399.35668 -8.03125,11.5 8.01562,11.76562 h -3.57812 l -6.34375,-9.57812 -6.5,9.57812 h -3.375 l 8.10937,-11.625 -7.92187,-11.64062 h 3.5625 l 6.26562,9.45312 6.40625,-9.45312 z" />
      <path
         id="path4603"
         d="m 746.67383,422.6223 h -3.29688 l -2.28125,-6.48437 h -10.0625 l -2.28125,6.48437 h -3.14062 l 8.46875,-23.26562 h 4.125 z m -6.53125,-9.14062 -4.07813,-11.42188 -4.09375,11.42188 z" />
    </g>
  </g>
</svg>
