<?xml version="1.0" ?><svg data-name="Layer 1" id="Layer_1" viewBox="0 0 32 32" xmlns="http://www.w3.org/2000/svg"><path fill="rgb(255,214,0)" d="M30.62022,12.64517a.59983.59983,0,0,0-.51954-.41211L20.358,11.39713,16.55234,2.41861a.62484.62484,0,0,0-1.10449,0l-3.80566,8.97852-9.74268.83593a.59963.59963,0,0,0-.34179,1.05079l7.39013,6.40429L6.733,29.21158a.60037.60037,0,0,0,.89453.64941l8.37256-5.0498,8.37256,5.0498a.6001.6001,0,0,0,.89453-.64941l-2.21533-9.52344,7.39062-6.40429A.6.6,0,0,0,30.62022,12.64517Z"/></svg>